<?xml version="1.0" encoding="utf-8"?>
<!-- Generator: Adobe Illustrator 17.0.0, SVG Export Plug-In . SVG Version: 6.00 Build 0)  -->
<!DOCTYPE svg PUBLIC "-//W3C//DTD SVG 1.1//EN" "http://www.w3.org/Graphics/SVG/1.1/DTD/svg11.dtd">
<svg version="1.1" id="Layer_1" xmlns="http://www.w3.org/2000/svg" xmlns:xlink="http://www.w3.org/1999/xlink" x="0px" y="0px"
	 width="50px" height="32px" viewBox="0 0 50 32" enable-background="new 0 0 50 32" xml:space="preserve">
<g id="_x23_62c2d0ff">
	<path fill="#FFFFFF" d="M16.417,3.353c0.803-0.827,1.939-1.285,3.081-1.355c1.387-0.05,2.8,0.525,3.717,1.578
		c0.604,0.661,1,1.503,1.148,2.384c0.137,0.967,0.018,1.983-0.436,2.856c-0.571,1.18-1.666,2.086-2.927,2.437
		c-1.524,0.453-3.263,0.046-4.434-1.026c-0.088-0.089-0.221-0.068-0.334-0.073c-1.203,0.012-2.407-0.011-3.61,0.011
		c0.062,1.702-0.909,3.378-2.395,4.199c-0.568,0.323-1.204,0.524-1.854,0.587c-0.648,0.027-1.297,0.028-1.945,0.002
		c-1.649-0.139-3.164-1.209-3.897-2.686c-0.307-0.605-0.464-1.28-0.492-1.957C2.04,9.289,2.043,8.268,2.041,7.246
		C1.981,6.62,2.025,5.99,2.006,5.362c-0.006-0.201-0.036-0.403-0.01-0.603c0.043-0.095,0.166-0.055,0.247-0.067
		C2.956,4.704,3.67,4.68,4.382,4.704c0.024,1.069-0.003,2.138,0.01,3.208C4.42,8.625,4.396,9.34,4.41,10.054
		c-0.049,0.625,0.21,1.244,0.606,1.718c0.461,0.509,1.134,0.821,1.822,0.834c0.539-0.003,1.082,0.02,1.617-0.074
		c0.992-0.222,1.766-1.151,1.802-2.169c0.001-1.838,0-3.677,0-5.516c-0.02-0.095,0.058-0.175,0.154-0.154
		c0.746,0.006,1.492-0.012,2.238,0.01c0.026,0.97-0.004,1.94,0.014,2.911c0.52,0.03,1.041-0.01,1.56,0.018
		c0.287,0.032,0.576,0.026,0.865,0.023c-0.105-0.453-0.092-0.918-0.079-1.379C15.12,5.18,15.608,4.109,16.417,3.353 M19.309,4.409
		c-0.456,0.079-0.883,0.299-1.224,0.61c-0.463,0.445-0.717,1.081-0.733,1.719c0.024,0.488,0.176,0.974,0.466,1.369
		c0.442,0.621,1.211,0.976,1.967,0.954c0.411-0.025,0.819-0.137,1.168-0.358c0.493-0.314,0.867-0.814,1.014-1.381
		c0.173-0.598,0.068-1.261-0.248-1.794c-0.339-0.609-0.983-1.02-1.666-1.126C19.807,4.381,19.556,4.378,19.309,4.409z"/>
	<path fill="#FFFFFF" d="M7.315,6.903C8,6.819,8.708,7.297,8.879,7.968C9.034,8.46,8.856,9.01,8.51,9.378
		c-0.247,0.23-0.567,0.387-0.904,0.421C7.218,9.836,6.823,9.697,6.527,9.446c-0.395-0.347-0.602-0.92-0.46-1.434
		C6.202,7.431,6.726,6.978,7.315,6.903z"/>
	<path fill="#FFFFFF" d="M39.007,7.56c0.16-0.053,0.398-0.002,0.405,0.201c0.06,0.224-0.227,0.454-0.42,0.3
		C38.797,7.946,38.826,7.672,39.007,7.56z"/>
	<path fill="#FFFFFF" d="M26.383,8.17c0.184-0.011,0.368-0.012,0.553,0.002c0.005,0.035,0.014,0.104,0.019,0.139
		c0.155-0.071,0.316-0.17,0.494-0.14c0.186,0.018,0.348,0.116,0.512,0.196c0.265-0.173,0.612-0.267,0.915-0.138
		c0.311,0.098,0.472,0.445,0.473,0.752c-0.005,0.391,0.003,0.783-0.005,1.174c-0.188,0.008-0.377,0.008-0.565-0.001
		c-0.03-0.37,0.006-0.741-0.016-1.11c-0.014-0.136-0.044-0.313-0.2-0.354c-0.187-0.08-0.415,0.089-0.391,0.29
		c-0.007,0.389,0.015,0.779-0.009,1.168c-0.198,0.016-0.398,0.016-0.596,0c-0.027-0.405,0.005-0.81-0.013-1.216
		c-0.006-0.164-0.188-0.286-0.345-0.255c-0.165,0.021-0.274,0.195-0.263,0.354c-0.006,0.374,0.008,0.748-0.002,1.122
		c-0.186,0.008-0.372,0.008-0.557,0c-0.008-0.374,0.002-0.747-0.002-1.121C26.386,8.746,26.35,8.457,26.383,8.17z"/>
	<path fill="#FFFFFF" d="M29.77,8.178c0.195-0.02,0.392-0.02,0.589-0.004c0.028,0.405-0.006,0.811,0.014,1.216
		c0.009,0.18,0.218,0.305,0.385,0.244c0.109-0.039,0.26-0.103,0.24-0.245c0.006-0.404-0.001-0.808-0.004-1.212
		c0.198-0.019,0.398-0.019,0.597-0.01c0.007,0.612-0.001,1.225,0.004,1.838c0.003,0.419-0.283,0.821-0.68,0.955
		c-0.238,0.05-0.525,0.052-0.712-0.127c-0.161-0.15-0.334-0.306-0.407-0.52c0.15-0.004,0.307-0.03,0.453,0.015
		c0.163,0.083,0.317,0.238,0.518,0.177c0.207-0.06,0.238-0.307,0.267-0.489c-0.216,0.106-0.458,0.192-0.7,0.122
		c-0.341-0.067-0.568-0.414-0.56-0.749C29.773,8.986,29.777,8.582,29.77,8.178z"/>
	<path fill="#FFFFFF" d="M33.38,8.169c0.182-0.01,0.365-0.011,0.548,0.003c0.005,0.035,0.014,0.104,0.019,0.138
		c0.156-0.074,0.321-0.161,0.499-0.139c0.186,0.015,0.349,0.112,0.513,0.193c0.259-0.149,0.578-0.261,0.873-0.152
		c0.311,0.079,0.52,0.406,0.509,0.718c-0.006,0.408,0.003,0.817-0.005,1.225c-0.186,0.008-0.372,0.008-0.557,0
		c-0.011-0.357,0.008-0.715-0.005-1.072c-0.012-0.129-0.023-0.289-0.145-0.364c-0.172-0.113-0.456,0.001-0.461,0.215
		c-0.011,0.407,0.007,0.815-0.005,1.222c-0.189,0.008-0.377,0.008-0.565-0.002c-0.032-0.368,0.007-0.739-0.016-1.108
		c-0.008-0.151-0.081-0.324-0.243-0.36c-0.175-0.058-0.342,0.099-0.392,0.252c-0.023,0.405,0.005,0.811-0.009,1.216
		c-0.186,0.009-0.373,0.009-0.558,0.001C33.376,9.493,33.377,8.83,33.38,8.169z"/>
	<path fill="#FFFFFF" d="M36.773,8.655c0.182-0.308,0.542-0.474,0.89-0.487c0.397,0.014,0.731,0.301,0.875,0.66
		c-0.198-0.002-0.418,0.047-0.592-0.072c-0.125-0.087-0.282-0.097-0.427-0.069c-0.347,0.117-0.43,0.626-0.175,0.873
		c0.126,0.105,0.317,0.167,0.472,0.087c0.091-0.042,0.174-0.102,0.266-0.141c0.146-0.03,0.296-0.012,0.444-0.007
		c-0.083,0.217-0.234,0.403-0.422,0.539c-0.547,0.356-1.445-0.07-1.427-0.747C36.678,9.076,36.656,8.844,36.773,8.655z"/>
	<path fill="#FFFFFF" d="M38.903,8.176c0.164-0.031,0.332-0.009,0.498-0.007c0.021,0.065,0.035,0.133,0.035,0.202
		c-0.005,0.592-0.006,1.183,0.001,1.775c-0.196,0.02-0.393,0.02-0.589,0.004c-0.022-0.593-0.003-1.187-0.011-1.78
		C38.848,8.306,38.817,8.192,38.903,8.176z"/>
	<path fill="#FFFFFF" d="M13.162,12.914c0.834-0.006,1.669-0.005,2.504-0.001c0.006,4.049-0.002,8.098,0.004,12.147
		c-0.011,0.67-0.533,1.271-1.173,1.436c-0.183,0.055-0.376,0.044-0.564,0.043c-0.257-0.005-0.514,0.006-0.771-0.005
		c-0.025-0.866-0.003-1.733-0.011-2.599c0.001-3.454,0-6.907,0.001-10.361C13.15,13.355,13.145,13.134,13.162,12.914z"/>
	<path fill="#FFFFFF" d="M34.111,13.173c0.174,0,0.343,0.042,0.512,0.077c3.07,0.609,6.14,1.215,9.211,1.813
		c0.319,0.057,0.636,0.127,0.942,0.233c1.232,0.422,2.264,1.377,2.796,2.563c0.708,1.538,0.51,3.45-0.512,4.803
		c-0.805,1.107-2.108,1.835-3.474,1.939c-0.375-0.009-0.755,0.033-1.126-0.045c-1.043-0.191-2.081-0.408-3.122-0.607
		c-0.083-0.017-0.16,0.021-0.234,0.048c-1.172,0.468-2.429,0.699-3.686,0.759c-1.532-0.008-3.063-0.001-4.595-0.004
		c-0.083,0.003-0.181-0.007-0.239,0.066c-0.683,0.629-1.547,1.064-2.465,1.212c-0.387,0.081-0.783,0.043-1.175,0.05
		c-1.063-0.079-2.087-0.54-2.869-1.262c-0.059-0.073-0.157-0.063-0.24-0.066c-1.343,0.006-2.687-0.003-4.03,0.004
		c-0.017,0.438,0.036,0.881-0.067,1.312c-0.134,0.852-0.468,1.679-1.02,2.347c-0.888,1.137-2.326,1.807-3.764,1.799
		c-0.001-0.797-0.007-1.594,0.001-2.391c0.602-0.028,1.214-0.227,1.652-0.655c0.335-0.305,0.579-0.707,0.69-1.147
		c0.088-0.313,0.046-0.642,0.054-0.962c0.009-0.477-0.026-0.955,0.033-1.43c0.018-1.597-0.019-3.196,0.024-4.794
		c0.797-0.006,1.595-0.004,2.393-0.001c0.009,1.121-0.003,2.242,0.005,3.363c0.936,0.003,1.872,0.007,2.807-0.002
		c-0.126-0.806-0.097-1.647,0.173-2.422c0.495-1.489,1.768-2.692,3.286-3.094c1.608-0.443,3.45,0.013,4.616,1.219
		c0.546,0.511,0.942,1.171,1.186,1.875c0.283,0.79,0.279,1.642,0.18,2.464c0.918-0.007,1.837,0.003,2.755-0.005
		c-0.029-0.048-0.056-0.099-0.092-0.141c-0.836-0.863-1.276-2.066-1.293-3.26c0.028-0.947,0.3-1.897,0.847-2.675
		c0.081-0.112,0.161-0.225,0.236-0.34c-0.283-0.099-0.591-0.095-0.872-0.201C33.796,14.802,33.966,13.99,34.111,13.173
		 M37.889,16.608c-0.326,0.055-0.643,0.173-0.916,0.359c-0.512,0.325-0.862,0.882-0.972,1.474c-0.032,0.247-0.026,0.498-0.01,0.746
		c0.105,0.725,0.596,1.379,1.253,1.699c0.942,0.471,2.186,0.078,2.747-0.799c0.243-0.37,0.388-0.809,0.382-1.254
		c0.014-0.665-0.303-1.319-0.81-1.745C39.102,16.708,38.484,16.503,37.889,16.608 M42.707,17.419
		c0.121,0.478,0.198,0.968,0.21,1.461c-0.024,0.202-0.041,0.404-0.058,0.607c-0.114,0.78-0.41,1.541-0.888,2.172
		c-0.05,0.066-0.088,0.139-0.12,0.215c0.427,0.054,0.844,0.173,1.272,0.22c0.739,0.013,1.481-0.339,1.913-0.944
		c0.384-0.535,0.548-1.248,0.36-1.888c-0.141-0.583-0.537-1.086-1.047-1.395C43.852,17.571,43.258,17.548,42.707,17.419
		 M27.018,19.059c-0.482,0.076-0.951,0.29-1.286,0.651c-0.433,0.401-0.65,0.991-0.677,1.571c0.008,0.587,0.231,1.182,0.653,1.597
		c0.42,0.452,1.04,0.684,1.649,0.702c0.358-0.027,0.721-0.105,1.037-0.283c0.595-0.309,1.032-0.899,1.157-1.559
		c0.142-0.594-0.029-1.228-0.362-1.729c-0.142-0.194-0.321-0.36-0.502-0.518C28.218,19.138,27.601,18.972,27.018,19.059z"/>
	<path fill="#FFFFFF" d="M6.349,17.015c0.679-0.071,1.374-0.004,2.016,0.237c1.644,0.594,2.856,2.27,2.814,4.031
		c0.051,1.654-0.994,3.258-2.493,3.937c-0.79,0.364-1.694,0.501-2.552,0.339c-1.085-0.184-2.096-0.802-2.741-1.695
		c-0.51-0.684-0.8-1.524-0.844-2.375c-0.034-0.946,0.243-1.906,0.796-2.677C4.033,17.825,5.156,17.16,6.349,17.015 M6.554,19.06
		c-0.494,0.078-0.971,0.305-1.311,0.677c-0.416,0.4-0.617,0.976-0.649,1.544c0.013,0.598,0.244,1.199,0.674,1.623
		c0.423,0.429,1.024,0.659,1.622,0.675c0.568-0.032,1.143-0.235,1.544-0.65c0.416-0.382,0.657-0.931,0.7-1.491
		c0.035-0.624-0.198-1.265-0.644-1.707C8.004,19.214,7.255,18.954,6.554,19.06z"/>
</g>
</svg>
